<?xml version="1.0" encoding="utf-8"?>
<!-- Generator: Adobe Illustrator 16.0.0, SVG Export Plug-In . SVG Version: 6.00 Build 0)  -->
<!DOCTYPE svg PUBLIC "-//W3C//DTD SVG 1.1//EN" "http://www.w3.org/Graphics/SVG/1.1/DTD/svg11.dtd">
<svg version="1.1" id="Ebene_1" xmlns="http://www.w3.org/2000/svg" xmlns:xlink="http://www.w3.org/1999/xlink" x="0px" y="0px"
	 width="200px" height="200px" viewBox="316 412.5 200 200" enable-background="new 316 412.5 200 200" xml:space="preserve">
<g>
	<g id="brandmark">
		<path id="j-green" fill="#7AC143" d="M366.694,512.961l-2.765-2.765c-9.217-9.216-11.981-22.118-8.602-33.792
			c-9.217-2.15-15.975-10.138-15.975-19.968c0-11.366,9.216-20.275,20.275-20.275c10.137,0,18.432,7.373,20.274,17.203
			c11.06-2.765,23.04,0.308,31.642,8.909l1.229,1.229l-15.054,15.053l-1.229-1.229c-4.915-4.915-12.902-4.915-17.817,0
			s-4.915,12.902,0,17.817l2.765,2.765l15.053,15.053l15.975,15.975l-15.053,15.053l-15.975-15.975L366.694,512.961L366.694,512.961
			z"/>
		<path id="j-orange" fill="#F9A541" d="M383.897,496.373l15.975-15.975l15.053-15.053l2.765-2.765
			c8.908-8.909,22.118-11.981,33.484-8.602c1.536-10.138,10.138-17.511,20.275-17.511c11.366,0,20.275,9.216,20.275,20.275
			c0,10.444-7.68,19.046-17.817,20.275c3.379,11.366,0.307,24.269-8.602,33.177l-1.229,1.229l-14.745-15.053l1.229-1.229
			c4.915-4.915,4.915-12.902,0-17.817s-12.902-4.915-17.817,0l-2.765,2.765l-15.053,15.053l-15.975,15.975L383.897,496.373
			L383.897,496.373z"/>
		<path id="j-red" fill="#F44321" d="M451.788,572.25c-11.673,3.379-24.575,0.922-33.792-8.293l-1.229-1.23l15.053-15.053
			l1.229,1.23c4.916,4.914,12.902,4.914,17.818,0c4.915-4.916,4.915-12.904,0-17.818l-2.766-2.766l-15.053-15.053l-15.974-15.974
			l15.053-15.053l15.974,15.975l15.053,15.052l3.072,3.072c8.602,8.602,11.674,20.891,8.909,31.949
			c10.138,1.535,17.511,10.137,17.511,20.275c0,11.367-9.217,20.275-20.275,20.275C461.926,588.84,453.632,581.467,451.788,572.25
			L451.788,572.25z"/>
		<path id="j-blue" fill="#5091CD" d="M445.951,529.857l-15.974,15.975l-15.053,15.053l-2.766,2.764
			c-8.908,8.91-20.889,11.674-31.948,8.91c-2.15,9.215-10.138,15.973-19.968,15.973c-11.367,0-20.275-9.215-20.275-20.273
			c0-9.523,6.759-17.818,15.667-19.662c-2.765-11.365,0-23.654,8.909-32.562l1.229-1.229l15.053,15.053l-1.229,1.229
			c-4.915,4.914-4.915,12.902,0,17.816c4.915,4.916,12.902,4.916,17.817,0l2.765-2.764l15.053-15.053l15.975-15.975L445.951,529.857
			L445.951,529.857z"/>
	</g>
</g>
</svg>
