<?xml version="1.0" encoding="utf-8"?>
<!-- Generator: Adobe Illustrator 16.0.0, SVG Export Plug-In . SVG Version: 6.00 Build 0)  -->
<!DOCTYPE svg PUBLIC "-//W3C//DTD SVG 1.1//EN" "http://www.w3.org/Graphics/SVG/1.1/DTD/svg11.dtd">
<svg version="1.1" id="Layer_1" xmlns="http://www.w3.org/2000/svg" xmlns:xlink="http://www.w3.org/1999/xlink" x="0px" y="0px"
	 width="200px" height="200px" viewBox="-79.645 -79.657 200 200" enable-background="new -79.645 -79.657 200 200"
	 xml:space="preserve">
<g>
	<circle fill="#0095D3" cx="9.466" cy="-16.396" r="18.393"/>
	<path fill="#0095D3" d="M65.257,20.351c0,10.168-8.226,18.391-18.397,18.391c-10.142,0-18.391-8.23-18.391-18.391
		c0-10.165,8.252-18.387,18.391-18.387C57.039,1.96,65.257,10.191,65.257,20.351z"/>
	<path fill="#0095D3" d="M9.407,38.812c10.159,0,18.395,8.234,18.395,18.395c0,10.156-8.236,18.395-18.395,18.395
		c-10.158,0-18.393-8.238-18.393-18.395C-8.986,47.046-0.751,38.812,9.407,38.812z"/>
	<g>
		<path fill="#0095D3" d="M20.438-64.703c-46.94,0.004-84.993,38.055-84.997,85.001c0.004,46.942,38.057,84.993,84.997,85.001
			c46.944-0.008,84.995-38.051,85.003-85.001C105.438-26.648,67.387-64.699,20.438-64.703z M68.283,68.138
			C56.01,80.396,39.15,87.952,20.438,87.957c-18.711-0.005-35.57-7.569-47.842-19.819c-12.256-12.274-19.811-29.135-19.815-47.84
			c0.004-18.713,7.559-35.57,19.819-47.844c12.272-12.258,29.131-19.815,47.842-19.819c18.711,0.004,35.572,7.565,47.844,19.819
			c12.26,12.278,19.812,29.135,19.817,47.844C88.095,39.003,80.542,55.864,68.283,68.138z"/>
	</g>
</g>
</svg>
